<svg xmlns="http://www.w3.org/2000/svg" xmlns:xlink="http://www.w3.org/1999/xlink" viewBox="0 0 177 47.83"><defs><style>.cls-1{fill:none;}.cls-2{isolation:isolate;}.cls-3{font-size:40px;fill:#231f20;font-family:Arial-BoldMT, Arial;font-weight:700;letter-spacing:-0.05em;}.cls-4{clip-path:url(#clip-path);}.cls-5{mix-blend-mode:multiply;}.cls-6{fill:#020202;}.cls-7,.cls-8{fill:#fff;}.cls-8{fill-rule:evenodd;}</style><clipPath id="clip-path"><path class="cls-1" d="M9.42,38.23A22,22,0,0,0,25,44.67h.53a21.76,21.76,0,0,0,11.22-3.4,22.08,22.08,0,0,0,3.78-3,22.33,22.33,0,0,0,3.14-4A21.84,21.84,0,0,0,46.81,25c.07-.75.11-1.51.11-2.28A22,22,0,0,0,25.49.75H25a22,22,0,0,0-22,22A21.16,21.16,0,0,0,3.11,25a21.83,21.83,0,0,0,3.18,9.3A22.2,22.2,0,0,0,9.42,38.23Z"/></clipPath></defs><title>HTCO-LOGO</title><g class="cls-2"><g id="Layer_1" data-name="Layer 1"><text class="cls-3" transform="translate(53.76 36.1) scale(0.9 1)">HTCO</text><g class="cls-4"><g class="cls-5"><path class="cls-6" d="M9.42,38.23A22,22,0,0,0,25,44.67h.53a21.76,21.76,0,0,0,11.22-3.4,22.08,22.08,0,0,0,3.78-3,22.33,22.33,0,0,0,3.14-4A21.84,21.84,0,0,0,46.81,25c.07-.75.11-1.51.11-2.28A22,22,0,0,0,25.49.75H25a22,22,0,0,0-22,22A21.16,21.16,0,0,0,3.11,25a21.83,21.83,0,0,0,3.18,9.3A22.2,22.2,0,0,0,9.42,38.23Z"/><path class="cls-7" d="M46.35,19.71l-.21.23c-.07.09-.09.09-.23,0s-.09,0-.12,0-.11.08-.18.12c0-.12,0-.21,0-.3l-.12,0a.37.37,0,0,0-.26-.27.86.86,0,0,1-.42-.33A.46.46,0,0,0,44.6,19a1.1,1.1,0,0,1-.27-.3s.09,0,.12,0a1.25,1.25,0,0,0,.17-.16,1.48,1.48,0,0,1,.18.19l.28.36c0,.06.11.12.15.07s.13,0,.19,0a1.46,1.46,0,0,0,.67.28.25.25,0,0,0,.17,0C44.18,14.74,45,13.05,41.07,9.35h0a4,4,0,0,0-.61.06h-.06a.44.44,0,0,0-.25,0h-.23l-.08,0c-.1-.08-.15-.09-.17-.08a1,1,0,0,1-.38-.16l-.07,0L38.88,9l.19.13c.14.13.13.15,0,.07l.09.08a1.12,1.12,0,0,1,.32.24l-.1-.05c-.09,0-.22-.14-.19-.09s0,0,0,0h0a1.63,1.63,0,0,0,.2.17s0,0,0,0L39,9.31c-.06-.06-.12-.1,0,0a3.06,3.06,0,0,0,.24.22c.07.07.07.08,0,.06a1.31,1.31,0,0,1-.16-.13l-.17-.15-.08-.08-.15-.15,0,0-.09-.1c-.15-.15-.26-.26-.42-.44l.12.13c.16.16.32.31.51.47a.87.87,0,0,0,.24.17s0,0,0-.07L38.8,9l-.21-.17-.27-.24c-.25-.24-.41-.41-.54-.56a.57.57,0,0,1-.1-.11l-.15-.18a2.18,2.18,0,0,1-.19-.22l0,0,0,0-.15-.19L37,7.12C37,7,36.94,7,37,7.11v0L36.9,7h0a.61.61,0,0,1-.07-.1l-.11-.09s0,0,0,0l0,0s-.06-.07-.07-.08l-.09,0,.07.1s-.14-.13-.07,0a.57.57,0,0,0-.1-.11c-.06-.06,0,0,0,.06l-.07,0,0-.09a.84.84,0,0,0-.14-.06s0,0,0,0,0,.06-.06.07h-.08l0,0,.1.06s0,0-.15,0h0c-.06,0-.08-.07-.12-.13s-.05.06-.11,0-.05,0,0,0,0,.09,0,.09h0v0a2.35,2.35,0,0,1,.4,0s0,0-.06,0-.07,0-.06,0,0,.12,0,.15a1.42,1.42,0,0,1-.25.23l0,0a.21.21,0,0,1,0,.1c0,.14-.14.1-.12.23-.16,0-.16.2-.31.27l-.18-.07c-.09.08-.14.21-.31.22s-.12.06-.19.08a.59.59,0,0,0-.19.11s-.06.06,0,.09.07.23.17.35.18.23.27.35h.11a.66.66,0,0,0,0,.14,2,2,0,0,0,.5.19.48.48,0,0,0,.42-.11c.09-.06.16-.14.28-.14s.07-.05.1-.08a1,1,0,0,1,.19.17,3.38,3.38,0,0,0,.61.59l0,.17.18.17h.23c-.07-.12,0-.16,0-.17h.1c.09,0,.15,0,.15-.07s0,0,0,0c0-.17-.08-.33-.13-.49l.11,0c.09,0,.14,0,.07-.19A.91.91,0,0,0,37.51,9a.41.41,0,0,1-.2-.24,1.34,1.34,0,0,1-.07-.18.43.43,0,0,0,0,0c.06-.05.06-.16.15-.16a.08.08,0,0,0,.08-.05s0-.06,0-.09l-.1-.12a.62.62,0,0,0,0-.13,1.32,1.32,0,0,1,.36.27l.08.12-.06-.06a.26.26,0,0,1,0,.11s-.05,0-.06.06,0,.06-.12,0a2.1,2.1,0,0,0,.22.33l.06.07a1.17,1.17,0,0,1,.15.3s0,0-.1,0l-.08,0,0,0s.09.08.12.08,0,0,.08,0,.12.12.14.09a.06.06,0,0,1,0,0,.41.41,0,0,0,.26.15,3.54,3.54,0,0,1,.39.14l0,0,.18.18-.09,0h0c0,.09,0,0,0,0l-.13-.09a.48.48,0,0,0-.29-.11h-.12c.07.1,0,.08,0,.11l.08.1.07,0,0,0,.17.16.12.22s0,.06-.13,0l-.19-.21h0c-.1,0-.1.12,0,.41.06.13,0,.2,0,.19s0,0,0,.05-.12.08-.22,0a.3.3,0,0,0-.1-.07.47.47,0,0,0-.17,0,3,3,0,0,1-.41.11c-.08,0-.16-.1-.25-.09V10.4a.72.72,0,0,0-.27.06c-.09,0-.17.1-.3,0v-.07l-.23,0-.2-.22c.11,0,.22.16.31.1s0-.14-.25-.21c0-.05,0-.1,0-.13s.1,0,.1-.06c-.16-.07-.16-.07-.18-.22s-.05-.11-.11-.11-.08,0-.09,0-.12.07-.2.09-.19.08-.12.24,0,.17.14.23,0,0,0,.08l.06.21s-.08.11-.15.12a3.7,3.7,0,0,1-.57.07c-.12,0-.2.06-.2.2a.17.17,0,0,1-.09.15,1.24,1.24,0,0,1-.56.25s0,0-.05,0c0,.17,0,.24-.2.23a.19.19,0,0,0-.13,0,.13.13,0,0,1-.15.06,1.08,1.08,0,0,1-.19-.08c-.06-.07-.1,0-.16,0l.09.25c-.12,0-.23,0-.3,0s-.33,0-.5-.07l.1.18.44.2c.05,0,.08.13.13.19l.08.08a1,1,0,0,1,.17.27A1,1,0,0,1,34,13c0,.23-.06.28-.27.21l-.36-.09L33,13,32.76,13l-.28-.08s-.11,0-.15,0l-.27.12a.8.8,0,0,1,.15.43l0,.06a.82.82,0,0,1,0,.62.23.23,0,0,0,.13.33s0,0,0,0c0,.16,0,.24.07.39l.19,0h.19a.29.29,0,0,1,.26.15,1,1,0,0,0,.16.19c.06.05.13.09.18,0a.41.41,0,0,1,.36-.13l.39,0s.08,0,.09,0,.12-.16.19-.17l.2-.34c-.18-.17-.19-.21-.09-.37s.12-.1.13-.17.08-.1.14-.12a3.61,3.61,0,0,0,.42-.16c0-.09-.06-.16-.08-.23s0-.14.05-.17a.3.3,0,0,1,.28,0,1.56,1.56,0,0,0,.37.1.31.31,0,0,0,.19,0,.66.66,0,0,1,.3-.15.16.16,0,0,0,.09-.07.38.38,0,0,1,.56.14,1,1,0,0,0,.26.32c.14.1.26.21.39.3a2.12,2.12,0,0,0,.21.11s.08,0,.11.06a.61.61,0,0,0,.2.14.15.15,0,0,1,.06.05.29.29,0,0,0,.2.16q.09.18.18.33l0,.25s.07,0,.08,0a.19.19,0,0,0,.05-.11c0-.11,0-.13.06-.14,0-.16-.11-.16-.17-.25l0-.19c.11.07.2.09.28.24,0-.11,0-.12,0-.16a3.48,3.48,0,0,0-.3-.26l-.2-.14s0-.06,0-.1l-.15,0a.62.62,0,0,1-.36-.31.68.68,0,0,0-.26-.31.26.26,0,0,1-.1-.07s-.09-.13-.08-.14,0-.14,0-.22l.29-.08a.22.22,0,0,0,.06.26l.08-.07a1.24,1.24,0,0,1,.14.18,1.43,1.43,0,0,0,.19.24c.13.12.25.17.38.29a2.83,2.83,0,0,1,.43.42c0,.08,0,.16,0,.25a.64.64,0,0,0,.08.19l.32.45c0,.08.11.18.16.17a.22.22,0,0,1,0,.08l.17.31.22.12-.13-.25.1.06a.91.91,0,0,1-.08-.17l.15.1c0-.07,0-.15-.05-.22L39.78,15l0-.06c0-.09-.05-.15-.09-.22a.21.21,0,0,1,0-.15l.17.1a.68.68,0,0,0,0-.12c.12-.05.24,0,.4.18a.36.36,0,0,0,0,.26l.07,0,.06.16c0,.07,0,.11,0,.12s0,.05,0,.06l.13.11a.33.33,0,0,0,.05.15l.09.15a0,0,0,0,1,.05,0c.07.1.14.07.23.24s.06.06.08.07.08,0,0-.14.15.08.23.19.11.14.15.12.09,0,.11,0,0-.07.05-.06.11.05.16,0l0,0a1,1,0,0,0,.09.38.91.91,0,0,1,.08.23c0,.19.05.38.08.57s0,.23,0,.22a.49.49,0,0,1-.21-.1.55.55,0,0,0-.2-.12c-.06,0-.07,0-.1.08s0,0-.07,0l-.25-.18c-.11-.09-.22-.17-.31-.14a.36.36,0,0,0-.18-.19c-.07,0-.15,0-.25-.21a0,0,0,0,0,0,0c-.14-.14-.34-.13-.38,0a.27.27,0,0,0,0,.23l.07.11c0,.05,0,.1,0,.13s-.08.09-.17,0a1.06,1.06,0,0,0-.51-.3.28.28,0,0,1-.21-.17.35.35,0,0,0-.24-.23l-.06,0a.5.5,0,0,0-.35-.1.27.27,0,0,1-.17,0,1,1,0,0,1-.21-.1L38,16.16c-.1.07-.11.07-.23-.09,0-.06.1-.11.14-.18s0-.19-.11-.28l-.13-.13c0-.08.11-.11.07-.24l-.13.06c-.15-.16-.23-.2-.35-.12a.48.48,0,0,1-.43.06.09.09,0,0,0-.07,0c-.15,0-.33,0-.45.08a.15.15,0,0,1-.09,0,.83.83,0,0,0-.46-.06l-.29,0a1.42,1.42,0,0,0-.42.07,1.58,1.58,0,0,1-.38.15.1.1,0,0,0-.05.06c-.07.12-.21.12-.35.06a.9.9,0,0,0-.35,0,.45.45,0,0,1-.44-.23c-.09,0-.14,0-.14.11,0,.32-.14.53-.42.59s-.19.17-.23.3a.78.78,0,0,1,0,.18.43.43,0,0,0,0,.41.29.29,0,0,1,0,.28.74.74,0,0,1-.26.32c-.1.08-.17.21-.32.21s-.25.14-.28.32a.25.25,0,0,1-.08.17c-.2.09-.22.3-.23.51a.24.24,0,0,1-.07.2.84.84,0,0,0-.25.45,1,1,0,0,1-.13.32.48.48,0,0,0,0,.48.17.17,0,0,1,0,.11c-.08.15,0,.23.11.31a.57.57,0,0,1,.17.64.86.86,0,0,0-.07.25A.66.66,0,0,1,31,22c.1.08.18.16.17.27a2.66,2.66,0,0,1-.07.39c0,.05,0,.13,0,.15s.18.34.43.23c0,.07.05.13.07.19l.1,0a1.53,1.53,0,0,1,.23.17.93.93,0,0,1,.21.27,1.17,1.17,0,0,1,.07.38.16.16,0,0,0,.11.15,1.23,1.23,0,0,1,.23.11c.19.17.36.36.53.54s.22.2.34.3a.3.3,0,0,0,.35,0,1.5,1.5,0,0,1,1.46-.14c.19-.1.37-.17.55-.28s.37-.07.54-.25a2.16,2.16,0,0,1,.82-.11.18.18,0,0,1,.15.13,1.23,1.23,0,0,1,0,.72c.15,0,.28-.07.42-.09a2.41,2.41,0,0,1,.38,0c.18,0,.2.23.26.39a.41.41,0,0,1,0,.12,1.92,1.92,0,0,1-.35.66c.06.15-.09.27-.14.41a1.19,1.19,0,0,1-.28.43,1.74,1.74,0,0,0,0,.32,2.22,2.22,0,0,0,0,.38c0,.23.12.43.16.65a.9.9,0,0,1,0,.51,1.18,1.18,0,0,0,0,.31c0,.18,0,.37,0,.53a.5.5,0,0,1-.19.44c0,.19,0,.37,0,.53a1.27,1.27,0,0,1-.34.79,1.77,1.77,0,0,0-.23.35c-.11.24-.2.48-.31.71a2.21,2.21,0,0,0-.17.8.58.58,0,0,0,.06.17l.12.23a3.15,3.15,0,0,0,.33.69.31.31,0,0,1,0,.17,1.3,1.3,0,0,0,0,.44,1.41,1.41,0,0,1,0,.21c0,.28,0,.54.17.66a.22.22,0,0,1,.09.17,1,1,0,0,0,.09.38.21.21,0,0,1,0,.15.66.66,0,0,1-.12.16c0,.08.1.06,0,.19s.11,0,.14,0,.1,0,.19-.1l.12-.11a1.35,1.35,0,0,0,.28-.23L38,36.5c.1,0,.24-.2.32-.21l0,0c.07-.1.13-.1.21-.22l0,0a1,1,0,0,0,.19-.18,11.91,11.91,0,0,0,.94-1.21,2.16,2.16,0,0,1,.21-.29,1,1,0,0,0,.17-.27l.08-.16c0-.09.11-.21.06-.26a.88.88,0,0,1,.05-.1.69.69,0,0,1,.11-.13l.24-.26a.53.53,0,0,0,.15-.26,1.09,1.09,0,0,0,0-.25c0-.12,0-.28,0-.34s0-.11,0-.15a.28.28,0,0,1,0-.25,1.48,1.48,0,0,1,.21-.35.67.67,0,0,0,.06-.12,1.87,1.87,0,0,1,.3-.48l.21-.22a2.27,2.27,0,0,0,.29-.48.68.68,0,0,0,.11-.33q0-.12,0-.27l.09-.4.06-.14c.05-.12.06-.18,0-.23s0,0,0-.06a1.55,1.55,0,0,1,0-.35,3.22,3.22,0,0,1,.16-.42.46.46,0,0,1,0-.09.32.32,0,0,1,0-.13,1.78,1.78,0,0,1,.19-.36c.12-.17.22-.35.33-.53l.07-.08a3.39,3.39,0,0,0,.31-.34,3.92,3.92,0,0,1,1-1,1,1,0,0,0,.16-.12c.13-.12.26-.23.38-.36s.29-.34.42-.51a2.14,2.14,0,0,0,.13-.19c.08-.11.16-.2.23-.31a1,1,0,0,0,.21-.39s.05-.06.07-.09a.92.92,0,0,1,0-.16,1.11,1.11,0,0,1,0-.17c-.06-.05-.11-.06-.17,0a.52.52,0,0,1-.13.06c-.1,0-.21,0-.31,0s-.24,0-.35.09,0,0-.06,0a.17.17,0,0,0-.18,0c-.14.08-.21,0-.26-.14s0-.14-.1-.16v0l.08-.08a.32.32,0,0,0-.06-.23c0-.06-.08-.14-.12-.21a3.15,3.15,0,0,0-.3-.47s0,0,0,0l-.08,0c0-.09,0-.17-.06-.25a1.34,1.34,0,0,0-.29-.66.38.38,0,0,1-.08-.18l-.06-.21a2.44,2.44,0,0,0-.12-.42,1.39,1.39,0,0,0-.2-.31.44.44,0,0,1-.1-.16c0-.07,0-.14-.08-.22l-.16-.3c-.11-.2-.23-.39-.33-.62a1.26,1.26,0,0,0-.18-.3A2.63,2.63,0,0,1,41.9,18a4.81,4.81,0,0,0,.4.6l0,0s.07,0,.16.13.12.18.17.27a1,1,0,0,1,.15.31.45.45,0,0,1,.16.25.43.43,0,0,0,.09.13,1.06,1.06,0,0,1,.29.44.52.52,0,0,1,.06.16,1.24,1.24,0,0,0,.26.54,1.13,1.13,0,0,1,.24.37,1.19,1.19,0,0,0,.14.3,2.11,2.11,0,0,1,.16.3.43.43,0,0,1,0,.25.49.49,0,0,0,0,.23,1.63,1.63,0,0,1,.08.44c0,.14.07.24.15.22s.16,0,.22-.09.09-.07.16-.07a.34.34,0,0,0,.21-.06.28.28,0,0,1,.2-.06.1.1,0,0,0,.08-.05.4.4,0,0,1,.22-.15l.48-.16c0-.11,0-.21.08-.24a1.21,1.21,0,0,1,.51-.14c.08,0,.15,0,.15-.1a.15.15,0,0,1,0-.1A9.1,9.1,0,0,0,46.35,19.71Z"/><path class="cls-8" d="M25.65,29.77c0-.12,0-.25-.07-.37s-.08-.26-.21-.24-.38-.17-.55-.34-.18-.26-.29-.36a.5.5,0,0,0-.46-.22.83.83,0,0,1-.54-.12.52.52,0,0,0-.29-.07c-.15,0-.21-.06-.27-.2s-.08-.18-.14-.21a6.28,6.28,0,0,0-.59-.27L22,27.26a2.84,2.84,0,0,0-.37-1,1,1,0,0,0-.29-.33,1.83,1.83,0,0,1-.45-.47.49.49,0,0,0-.24-.21,1.63,1.63,0,0,1-.4-.24c-.19-.12-.39-.23-.59-.33a.37.37,0,0,0-.21,0,.93.93,0,0,0-.29,0,.52.52,0,0,1-.5-.15,1.07,1.07,0,0,1-.19-.18,3.08,3.08,0,0,0-.76-.62.52.52,0,0,1-.17-.12.78.78,0,0,0-.37-.22,1.33,1.33,0,0,1-.19-.05c-.11,0-.25-.08-.21-.22l-.53,0a.15.15,0,0,0-.09,0,.53.53,0,0,1-.6,0,.53.53,0,0,0-.29-.08h-.36c-.11,0-.2,0-.21-.13s-.14-.15-.25-.18l-.24,0L14,22.57c0,.05-.08.08-.09.12s0,.08,0,.12c-.23.05-.25.05-.27-.11a.19.19,0,0,0-.14-.18.26.26,0,0,0-.26.06s-.08.08-.13.09-.29.2-.51.13c0,0,0,0,0,0s-.15.05-.21,0c-.27.07-.26.25-.24.43a.78.78,0,0,0-.43.34,1,1,0,0,1-.2-.15.93.93,0,0,0-.42-.21.54.54,0,0,0-.42.06.71.71,0,0,1-.18.08.9.9,0,0,1-.23,0,1.22,1.22,0,0,1-.17-.05c-.07-.06-.11-.12-.16-.16A1.64,1.64,0,0,1,9.71,23a.55.55,0,0,1-.16-.27c0-.18.11-.35.06-.54a.08.08,0,0,1,0,0c0-.06.11-.1.16-.16s.05-.06,0-.08-.05-.24-.2-.28a.51.51,0,0,1-.17-.07.67.67,0,0,0-.3-.08,3,3,0,0,0-.43,0,1.61,1.61,0,0,0-.38,0s-.1,0-.16,0a1.43,1.43,0,0,0,.16-.24c.08-.21.18-.42.25-.64a.71.71,0,0,1,.23-.41.16.16,0,0,0,0-.12s-.07,0-.1,0-.09,0-.11,0a.39.39,0,0,0-.24,0l-.14,0c-.26,0-.36.13-.42.4a.23.23,0,0,1-.14.19l-.43.17c-.06,0-.11,0-.14-.05s0-.05-.08-.06-.07,0-.08-.09a1.43,1.43,0,0,0-.06-.26,2.52,2.52,0,0,1-.05-.48.65.65,0,0,1,0-.11c0-.09,0-.18.07-.27a1.2,1.2,0,0,1,.13-.33A.63.63,0,0,0,7.14,19a.57.57,0,0,1,.2-.4,2.39,2.39,0,0,1,.35-.28c.11-.08.23-.13.33,0a.38.38,0,0,0,.43,0c.06,0,.1,0,.13,0s.09,0,.11,0,0-.16.05-.23c.18,0,.37,0,.57-.06a.33.33,0,0,1,.33.13c0,.06.09.06.17,0a.59.59,0,0,1,.14-.06c.05,0,.13,0,.15,0s.23.17.18.33a.49.49,0,0,0,.13.48.38.38,0,0,1,0,.43l-.18,0v0a1.07,1.07,0,0,0,.6-.13.19.19,0,0,0,.09-.09c.06-.17.15-.33.08-.49s-.08-.34-.16-.49.06-.52.36-.69l.3-.16a.62.62,0,0,0,.12-.09A.51.51,0,0,1,12,17a.69.69,0,0,1,.45-.24l.1,0,.3-.19a.23.23,0,0,0,0-.14c-.11-.15,0-.31.14-.49a.39.39,0,0,0,.14-.18.33.33,0,0,1,.15-.2.73.73,0,0,0,.28-.42,1.61,1.61,0,0,0,.56-.26l-.37.12v-.05a5.28,5.28,0,0,1,1-.31c0-.12-.07-.15-.12-.22s0,0,0-.05a.82.82,0,0,1,.47-.5.35.35,0,0,0,.11-.07c.06-.12.15-.12.24-.15s.37-.11.49-.31a.08.08,0,0,1,.06,0l.44-.14c-.11.15-.32.25-.25.41l.16,0a1.71,1.71,0,0,0,.26-.21,1.71,1.71,0,0,1,.18-.2,1.7,1.7,0,0,1,.24-.09,3.11,3.11,0,0,0,.73-.49.69.69,0,0,1,.15-.07,1,1,0,0,0,.31-.24l-.18,0c0-.06,0-.11,0-.2a1.26,1.26,0,0,0-.41.54.28.28,0,0,0-.25.07.15.15,0,0,1-.1,0,1,1,0,0,1-.46,0c-.23,0-.29-.19-.11-.41a0,0,0,0,1,0,0l-.25.13c-.1,0-.1,0-.22-.05.25,0,.4-.14.57-.26s0-.14-.12-.13a1.47,1.47,0,0,0-.58.19,5,5,0,0,0-.88.55.83.83,0,0,1-.15.09,1.8,1.8,0,0,1,.66-.55.3.3,0,0,0,.13-.12.57.57,0,0,1,.34-.27l1.15-.42.61-.19a1.32,1.32,0,0,0,.49-.31,1.85,1.85,0,0,1,.62-.39,1.66,1.66,0,0,0,.49-.35c0-.13,0-.23,0-.34l-.3,0A.17.17,0,0,1,19,9.8l.12-.08a1.79,1.79,0,0,0-.34,0,.32.32,0,0,1-.16,0,1.34,1.34,0,0,0-.19,0c-.19,0-.37,0-.43-.11s-.17-.13-.19-.24,0,0,0,0-.16,0-.22-.07A1.13,1.13,0,0,1,17.1,9l-.52.53a1.66,1.66,0,0,1-.21.16l-.29.16,0,0-.5-.07c.08-.13,0-.22.21-.41l-.14,0-.43.11s-.08,0-.07,0-.05-.06-.1-.06a.88.88,0,0,0-.7.1l-.12,0-.47.07-.31.05a.22.22,0,0,0-.16.13.14.14,0,0,0,0,.11c0,.1,0,.11-.13.22l-.1.05.17,0a1.1,1.1,0,0,1,0,.18l-.46.38.29.06c.19,0,.25.19.14.4a.23.23,0,0,1-.08.11,1.88,1.88,0,0,1-.71.4.8.8,0,0,0-.2.07l0,.14s0,0,0,0a0,0,0,0,1,0,0c-.09.08,0,.11,0,.16s.07.16.11.25l-.08,0a.59.59,0,0,0-.14,0c-.2.1-.21,0-.24-.07a.26.26,0,0,0-.27-.2s-.12-.06-.11-.09,0-.21.17-.3l-.32-.16c-.12,0-.3,0-.47,0h-.4c-.07-.16-.24-.21-.35-.3a.41.41,0,0,0-.34-.07.24.24,0,0,1-.15,0,.26.26,0,0,0-.19,0c-.19.05-.3,0-.31-.19l-.12,0c-.05,0-.06,0,0-.12a.87.87,0,0,1,.17-.33,1.53,1.53,0,0,1,.33-.34,1.12,1.12,0,0,0,.21-.18.45.45,0,0,0,.07-.07l.22-.07a.64.64,0,0,1,.41-.3,1.11,1.11,0,0,0,.32-.09,2.32,2.32,0,0,0,.36-.22V9.3l.41-.21L11.39,9l.31,0,0,.13-.16,0a.23.23,0,0,0-.19.11l-.24.34c-.09,0-.2,0-.27.17a.83.83,0,0,1,.22,0c.08,0,.2,0,.18.08s.06,0,.1,0A1.83,1.83,0,0,0,12,9.6c.15,0,.27.07.44.07a.6.6,0,0,0,.41-.13c-.15,0-.35,0-.46-.15s-.05,0-.08,0a1.54,1.54,0,0,1-.37-.09c-.07,0-.09-.12-.14-.18.17,0,.19.17.41.08,0,0,.07-.1.11-.12l.62-.32H13a1.3,1.3,0,0,1,.44,0,1.93,1.93,0,0,0,0,.24l-.18.1.13.09.1-.06.09,0c-.09.15-.1.19,0,.19A1,1,0,0,0,14,9.2l.36-.12c.14,0,.27,0,.4-.05s.2.06.33.05.18.05.27.06a.28.28,0,0,0,.2,0,.33.33,0,0,1,.3-.07H16l.71-.15a.18.18,0,0,0,.15-.12l-.33,0,0,0a.58.58,0,0,0,.19,0,.46.46,0,0,1,.35-.05.27.27,0,0,0,.27-.1l-.2,0c.1-.1.14-.21.28-.25s.08-.09,0-.11l-.16-.07a.55.55,0,0,0-.38,0c-.13,0-.14-.05-.2-.08s0-.11.07-.19h.3c.15,0,.25.08.45,0s.17,0,.27-.2l.29-.16c.05-.12.17-.19.27-.28l.05-.07h-.29s-.1,0-.14,0h-.55a1,1,0,0,1-.46.07s-.09,0-.14,0h0l.06-.11.22-.1v0h-.15C17,7,17,7,16.93,7s-.2,0-.28,0-.15,0-.22,0-.25.1-.32,0a.23.23,0,0,0-.17,0l-.33.07c-.1,0-.23.07-.3,0a.69.69,0,0,0-.46,0h0l0-.08a.61.61,0,0,0-.39,0L13.9,7l-.62.09a7.11,7.11,0,0,0-.75.15.39.39,0,0,0-.28.17c0,.06-.08.07-.12,0l-.06-.08.53-.23s0,0,0,0c-.2,0-.41,0-.59,0a5.74,5.74,0,0,0-.58.18.35.35,0,0,0-.12.1c0,.07-.08.08-.12.08a.22.22,0,0,1-.11,0l-.05,0c.14-.12.26-.22.4-.32a3.4,3.4,0,0,0-.45.08.59.59,0,0,0-.35.16.5.5,0,0,0-.15.23.64.64,0,0,1-.06.11v0a0,0,0,0,0,0,0,.27.27,0,0,1-.07.16l-.2.24a1.19,1.19,0,0,1-.11.25.64.64,0,0,1,0,.09c-.06,0-.13.1-.11,0h0a.71.71,0,0,0-.19.25.45.45,0,0,0-.1.13V9l0,0-.06,0,.1-.16a.39.39,0,0,0-.08.1c-.07.13-.09.14-.09.13l0-.09v0l0-.08V9a1,1,0,0,0,.12-.23l0,.05s0,0,0,.05h0l.07-.14s0,0,0-.06l.09-.19.07-.17a3.42,3.42,0,0,1-.12.35,1.15,1.15,0,0,1,0,.15L9.59,9c0,.05,0,0,.06-.08a.38.38,0,0,1,0,.14l0,.05s0,.09,0,.06,0,0,0,0a.5.5,0,0,1-.07.24c.05-.09.06-.1.05-.06s0,.08,0,.07,0,0,0,0a.24.24,0,0,1-.06.11.48.48,0,0,1-.15.18l-.05,0A1.69,1.69,0,0,1,9,10l-.07.05a.64.64,0,0,0,0,.07l-.21.22-.23.22.07,0c.06,0,.15-.06.15,0s0,0,.07,0L9,10.38a.83.83,0,0,0,.13-.17l.05-.07a2.43,2.43,0,0,0,.14-.2l0,.06a1.71,1.71,0,0,0-.11.17.61.61,0,0,0,.07-.1l-.1.16s0,0,0,0a1.79,1.79,0,0,0,.14-.28s0-.07,0-.06l-.09.21a2.35,2.35,0,0,1-.14.25l0,0,0-.1a.59.59,0,0,0,0-.08s0,0-.06.08,0,0,0,.05,0,0,0,0l-.07.11a.66.66,0,0,1-.15.19h0a.56.56,0,0,0-.16.1l-.06.05a.35.35,0,0,1-.15.12l.06-.12-.08,0-.06.06c-.12.11-.21.15-.2.08s-.17-.06-.27-.1h0a.34.34,0,0,1-.19,0,.48.48,0,0,0-.17.05.66.66,0,0,1-.31.1,1.72,1.72,0,0,1-.39,0,12.87,12.87,0,0,0-1.69,2.2h0L5,13.47h.08l-.1,0a.42.42,0,0,1,0,.1s0,0,0,0,0,0,0,.06l.31.12v-.15l.13-.05c-.09.08,0,.11,0,.15s.08-.08.11,0a.39.39,0,0,0,.08.1c0,.05,0,.1-.07.15s0,.15.11.14.14.09.2.13,0,.05,0,.07,0,.06,0,.06,0,0,0,.06,0,.18.14.18,0,0,0,0a.16.16,0,0,1-.13,0s-.08-.08-.15,0l.18.15.17.16c.06.05.12,0,.17.09s.11.08.17,0,0-.16-.11-.16-.09-.1-.12-.19,0,0,.06,0,.08.1.13.1.06.12.11.1a.29.29,0,0,1,0,.08c0,.05,0,.11,0,.18l-.24,0,0,.15a1.65,1.65,0,0,1-.12.93,1,1,0,0,0-.08.34.37.37,0,0,1-.08.22A.93.93,0,0,1,6,17s0,.1,0,.19a.08.08,0,0,0,0,.07c0,.07,0,.14,0,.2v.13a.18.18,0,0,0,0,.1.43.43,0,0,1,0,.26H6c.07,0,.09,0,.11.05s0,.07,0,.22v0c0,.1,0,.2-.08.31s0,.17,0,.2,0,.06,0,.09a.38.38,0,0,1-.09.18h0c0,.08,0,.16,0,.18s0,.06,0,.1a1.11,1.11,0,0,1,0,.13.37.37,0,0,0,0,.11.25.25,0,0,0,0,.13.67.67,0,0,1,0,.28.56.56,0,0,0,.07-.13c0-.05,0-.19,0-.17s0,0,0-.06a.55.55,0,0,0,0-.16,1,1,0,0,0,0-.17.52.52,0,0,0,0-.11,1.23,1.23,0,0,1,0-.19.82.82,0,0,0,.05-.27.58.58,0,0,1,.06-.24l0-.06c.09-.12.08-.06.09,0a.74.74,0,0,1,0,.14,1.08,1.08,0,0,1-.11.29s0,0,0,0a.71.71,0,0,0,0,.15.19.19,0,0,0,0,.08.28.28,0,0,0,0,.1s0,0,0,.1l0,.08a.15.15,0,0,1,0,.06s0,.06,0,.13,0,.05,0,.07a1.77,1.77,0,0,1,0,.52v.05a.31.31,0,0,1,0,.16.77.77,0,0,1-.06.15.59.59,0,0,0,0,.26.3.3,0,0,1,.06.17.15.15,0,0,0,0,.06.33.33,0,0,1,.16.21s0,0,0,0a1.89,1.89,0,0,0,.29.27c.1.07.2.16.33,0s.2-.06.3.05a2.71,2.71,0,0,1,.17.25c.08.11.16.24.29.25a.86.86,0,0,1,.21.07c.17.06.33.17.53.11a.39.39,0,0,0,.06.13,4.35,4.35,0,0,0,.38.36A.25.25,0,0,1,9,23c0,.08,0,.12.07.16l.13.06.06-.06a1.67,1.67,0,0,0,.2.13c.1.05.2.1.19.24l0,0,.05-.05.11.12a.52.52,0,0,1,.46.16.74.74,0,0,0,.22.14.85.85,0,0,0,.25-.05l-.15-.2c.07-.05.15-.07.18-.12s.1-.14.21-.09.19.09.21.15a1.45,1.45,0,0,0,.36.49.33.33,0,0,1,.07.13,1.53,1.53,0,0,1,0,.37,1.32,1.32,0,0,1,0,.28c0,.06.08.14.06.18a.52.52,0,0,1-.21.23.26.26,0,0,0-.16.19c0,.14-.06.31-.27.33a.33.33,0,0,0-.1.06c0,.17,0,.17-.07.3s0,.17-.08.22,0,.17,0,.26v.13l.27.32c-.38.29-.38.33-.15.73l-.09.12a1.26,1.26,0,0,1,.68.62c.06.09.13.17.18.26s.24.44.38.65.29.45.44.68.15.19.1.3,0,.08,0,.11a2.68,2.68,0,0,0,.44.45c.22.17.47.3.71.46l.17.11c.21.18.42.36.62.55a5.43,5.43,0,0,1,.09.69.81.81,0,0,1-.1.56s0,.07,0,.1l.06.49s0,0,0,0a.11.11,0,0,0,0,.08c.06.26-.06.44-.09.66s-.08.14,0,.26,0,.12,0,.14,0,.23,0,.37a.9.9,0,0,1,.07.59,3.19,3.19,0,0,1-.19.62c0,.08,0,.21-.18.18.07.17.13.33.21.49a.22.22,0,0,1,0,.22.38.38,0,0,0,0,.46c-.17,0,0,.25-.09.35.19.08.2.07.17-.07a.34.34,0,0,1,0-.1.69.69,0,0,0,0-.13h0l.13,0,.08.15.07.07a.34.34,0,0,0-.07.11,1.92,1.92,0,0,0,0,.24s-.09.07,0,.17c-.11,0,0,.15-.05.21s-.06,0-.12.07a1.39,1.39,0,0,0,0-.15c-.07,0-.14-.1-.14,0s.13.1.09.16l-.1-.07a.45.45,0,0,1,0,.08s-.1,0-.19.11l.32.19-.11.22-.11-.06c-.18.09-.09.29,0,.49.21,0,.22.18.28.33-.16-.06-.08.08-.13.11.11.09.12,0,.19,0l.13.14-.06.16.25.3-.07.08.38.36h.07l0,.12.19.07s.09,0,.09.07c0,.18.14.12.22.14.12.24.3.22.46.29a.34.34,0,0,1,0-.08l.3.16,0-.09a.9.9,0,0,0,.47.17l-.1-.09-.48-.41a.23.23,0,0,1-.1-.26c.06-.09,0-.18-.07-.27a2.65,2.65,0,0,0-.21-.26.23.23,0,0,1-.1-.21c0-.08.08-.07.15,0s.19,0,.21-.09,0-.16.15-.14a.52.52,0,0,0,.18,0,.28.28,0,0,0,.22-.09.11.11,0,0,0,0-.15.26.26,0,0,0-.16-.13.63.63,0,0,1-.38-.22c-.11-.11-.12-.15-.06-.24a.14.14,0,0,1,.17-.08l.29,0s0-.06,0-.07.08-.07.06-.13,0-.17.11-.19h.1l-.19-.15c.07,0,.13-.05.19,0s.15.13.2.09,0-.12-.11-.22c-.07.16-.19,0-.31-.09s-.06-.24-.09-.38l.28.16a.9.9,0,0,0,.46.17c.2,0,.25,0,.21-.25s0-.14.1-.14a.76.76,0,0,1,.15,0l.76.09a.42.42,0,0,0,.2,0,1.62,1.62,0,0,0,.19-.18c.1-.1.1-.14,0-.31s0-.14.05-.14h.2c0-.17,0-.19.14-.12a.44.44,0,0,0,.53,0,1.09,1.09,0,0,1,.23-.14c.08,0,.16-.08.17-.18s.1-.16.21-.2a.68.68,0,0,0,.41-.4.66.66,0,0,1,.31-.33.37.37,0,0,0,.17-.43.41.41,0,0,1,.14-.5l.31-.19a.66.66,0,0,1,.46-.11s.05,0,.07,0,.23-.16.4-.14a3.63,3.63,0,0,0,.57,0c0-.19.19-.15.29-.22s0-.17,0-.23a2,2,0,0,1,.26-.38.22.22,0,0,0,.07-.18c0-.18,0-.33.19-.4a.56.56,0,0,1,0-.44.81.81,0,0,0,0-.38,1.76,1.76,0,0,1,.09-.85l.07.09c.07-.14.14-.26.2-.4a1.91,1.91,0,0,1,.18-.38,2.59,2.59,0,0,0,.32-.47A1.56,1.56,0,0,0,25.65,29.77Z"/><path class="cls-8" d="M27.23,2.27h.1s.05,0,.06,0,.2,0,.3,0,0,0,.08.08-.13.1-.17.21l.32-.11s.06,0,.08,0,.18,0,.27.08l0-.05v0l.09.11c.16-.12.34,0,.53,0s.18.08.27.12v0l-.11,0-.29,0s-.09,0-.11.07-.06,0-.1,0a.78.78,0,0,1-.21,0l.2.07c-.06.15-.18,0-.25.07l.07.09v.14s-.06,0-.08,0-.15,0-.19.07l.21.11,0-.1h.12c0,.07.08.14,0,.18s0,.07-.07.1l.07,0h0s.08,0,.11.08,0,.08,0,.12v0l0,.07,0,.07a.39.39,0,0,1-.16-.23l-.2,0c.06.08.12.18.19.26a.22.22,0,0,1,.05.14c0,.06,0,0-.07,0h0c.06.16.13.1.2.15s-.21,0-.3.09l.1,0a.44.44,0,0,0,0,.1l-.44,0,.1.06.12.07c0,.18,0,.21-.1.15a1.53,1.53,0,0,0-.27-.11l.46.28c0,.1.06.19.08.28h0a2.33,2.33,0,0,1-.36-.08c-.05,0-.11-.1-.19-.16h-.13V5l-.16,0c.26.07.5.14.76.23l-.29.07-.15,0a1.82,1.82,0,0,1-.63.08h-.24a.7.7,0,0,1-.25,0,.77.77,0,0,0-.45.06,1.12,1.12,0,0,0-.24.13,6.06,6.06,0,0,1-.82.28,1,1,0,0,1-.25,0,.74.74,0,0,0-.44.08.66.66,0,0,0-.29.33s0,0,0,.06l-.41.27a.45.45,0,0,1,0,.11s0,.08,0,.1-.26.4-.26.4a.84.84,0,0,1-.26.11h-.31l-.05,0c-.17-.14-.43-.07-.67,0-.08,0-.14,0-.2,0s-.22,0-.28-.1-.32,0-.37-.19,0,0-.06,0c-.18,0-.3-.11-.33-.29s-.1-.07-.16-.1a.57.57,0,0,1-.19-.1s0-.1,0-.17,0-.19,0-.31a.45.45,0,0,1,.32-.24l.21,0a.16.16,0,0,0,.13-.06c.11-.17,0-.29-.14-.26a2,2,0,0,0-.31.07h.34c-.14.15-.29.16-.43.24s-.26,0-.39,0,0-.12,0-.19l.19,0v0l-.11,0a2.73,2.73,0,0,1,.71-.22c-.08,0-.11-.09-.23,0s-.06,0-.08,0l-.12-.06,0,.09h0l-.37.13c-.09,0-.18,0-.13-.08s0,0-.05,0l.1-.08c-.14,0-.17-.08-.17-.19h-.12a.54.54,0,0,1,0-.1h-.09L20,4.9l-.51,0h0c-.16-.13-.43,0-.66.07a2.34,2.34,0,0,0-.48.18,4.93,4.93,0,0,0-.46.23l-.19.07s0,.07,0,.11l-.36.14.09-.12a.72.72,0,0,0-.21,0,1.34,1.34,0,0,1-.58.06,1.29,1.29,0,0,0-.38,0H16c.17-.15.29-.08.44-.21H16a.45.45,0,0,1,.17-.17A4.91,4.91,0,0,0,16.8,5a5.16,5.16,0,0,1,.53-.26l.26-.11A1.51,1.51,0,0,0,18,4.4L18,4.29l-.29.2-.32.15c0-.06,0-.11,0-.18l.35-.21L18.09,4a1.39,1.39,0,0,1,.63-.25l.07-.15-.05,0s0,0,0,0l.33-.16c.06,0,.12-.1.18-.12L20,2.92c.1,0,.2-.1.3-.13s.19,0,.19.1l.14-.09-.07-.07s0,0,.06,0a1.85,1.85,0,0,1,.5-.1.68.68,0,0,0,.25-.07l-.19,0a3.93,3.93,0,0,1,1.53-.25v0h-.32l-.37,0c.06-.08.18-.05.17-.17l.07,0a3,3,0,0,1,.4-.12,5.23,5.23,0,0,1,.54-.12c.14,0,.28,0,.42,0L24,1.67a3.5,3.5,0,0,1,.72-.06c.17,0,.34,0,.5,0l.7,0,.59.06a4.32,4.32,0,0,1,.54.1.62.62,0,0,1,.28.16s.06,0,.08,0l.34.1.14.07a5.31,5.31,0,0,1-.8,0c.07,0,.16,0,.19.13l-.09,0h.09Zm-1-.24s0,0,0,0h.22l.21,0v0Zm-.32,0h0l.21,0v0Zm2.5.69h0l.13,0h0Zm-5.93-.68c-.09,0-.09,0-.18,0Zm5.24,2.29v0h.07Zm-2-2.28v0h.11v0Z"/><path class="cls-8" d="M14.32,5.23,14,5.32a2.88,2.88,0,0,1-.4.09h-.07a1.15,1.15,0,0,0-.45,0,1.77,1.77,0,0,1-.46,0,.66.66,0,0,1-.15,0H12.4a.9.9,0,0,1-.54,0s-.13,0-.14,0-.05-.08-.08-.08a.55.55,0,0,0-.18,0,1.58,1.58,0,0,1,.95-.27.39.39,0,0,1,.35-.13c.2,0,.4,0,.6,0a.3.3,0,0,0,.21,0A1,1,0,0,1,14,4.75l.61-.14c.38-.09.74-.2,1.1-.31L16.77,4l.7-.23s.06,0,.08,0,.25-.09.37-.12.33-.16.49-.13a.52.52,0,0,0,.22-.06c.09,0,.19-.09.28-.06l-.1.09-.58.33-.29.13a.16.16,0,0,0-.1.1l-.23.06v0L17.84,4l.23-.12v0l-.73.42-.71.44s0,.08,0,.09L16.37,5l-.74.31c.12,0,0,.13.08.13l-.1.07a1.86,1.86,0,0,0-.28.21,1,1,0,0,1-.39.25l-.07,0a2.26,2.26,0,0,1-.16.26.67.67,0,0,1-.16.14,4.71,4.71,0,0,1-.52.15l.1,0c.08,0,.08,0,0,.15a1.75,1.75,0,0,1-.78.22c-.3,0-.62.07-.92.09S12,7,11.77,7a3.67,3.67,0,0,0-.51,0c-.1,0-.18,0-.2-.06s-.08,0-.14.14l-.21.1a.26.26,0,0,0-.13.13s-.08-.09-.15,0l-.06.08,0,0s-.07.07-.11.12h0s0,0-.07.07l0,.06,0-.1c0-.14,0-.11.06-.12a1.66,1.66,0,0,1,.14-.33c.07-.09.14-.19.22-.18a1,1,0,0,1,0-.12s0,0,0,0a.67.67,0,0,0,.17-.17l.05,0s.08,0,.13,0l.07,0c.12,0,.3,0,.51-.13a5.21,5.21,0,0,1,.65-.19L12,6.18a1.07,1.07,0,0,1,.73,0c-.05-.13-.18-.11-.29-.11h-.11c-.12,0-.12,0-.12-.14a.6.6,0,0,1-.42.16,4.17,4.17,0,0,0-.46.09.27.27,0,0,1-.28-.08l.06-.06V6L11,6.11s-.08,0-.11,0-.05,0-.07,0,0-.06.07-.12l0,0s0-.11.05-.15A.56.56,0,0,1,11,5.71a.47.47,0,0,1,.09-.06c0-.08,0-.12.08-.13s.07,0,.1,0a.34.34,0,0,1,.26,0,.83.83,0,0,0,.28,0c.05,0,.11,0,.13.06l.05,0s.06-.1.08-.1.14,0,.17,0,.15.07.22,0a.39.39,0,0,1,.27-.06l.35,0h.39a.17.17,0,0,0,0-.07A5.58,5.58,0,0,0,14,5.37a.42.42,0,0,0,.29-.14h.19c0-.05,0-.07,0-.08Z"/><path class="cls-8" d="M39.91,8.29l0,0-.23.12.1.06-.24.1.14.09a.29.29,0,0,1-.1,0s-.05,0-.06,0,0,0,0,0a.35.35,0,0,0,.12.08c.12,0,.29.1.43.14s0,0,0,0h0c.16.09.16.09.26.1l.4,0A7,7,0,0,1,39.91,8.29Z"/><path class="cls-8" d="M42.58,30.11a4.6,4.6,0,0,0,.64-.51.87.87,0,0,0,.2-.34c0-.05,0,0,.1,0s.14-.11.15-.19a.36.36,0,0,1,.13-.22.69.69,0,0,1,.08.52s0,.08,0,.11a.25.25,0,0,1-.07.26l-.08-.1,0,0v.15a.37.37,0,0,1,0,.11,7,7,0,0,0-.26.77c-.09.25-.15.52-.23.75s-.13.33-.21.48a.37.37,0,0,1-.23.21l-.07,0a.36.36,0,0,1-.34.12c-.09,0-.1-.09-.08-.22a.27.27,0,0,0,0-.18.4.4,0,0,1,.06-.37,1.92,1.92,0,0,0,.15-.37.37.37,0,0,0,0-.21,3.31,3.31,0,0,0,0-.33.31.31,0,0,1,.06-.24C42.53,30.26,42.55,30.19,42.58,30.11Z"/><path class="cls-8" d="M36,5v.06a1.3,1.3,0,0,1,.1.18s0,0-.11-.2a.61.61,0,0,0-.07-.13V5l.16.34v0A.75.75,0,0,1,36,5.21l0,0A1.15,1.15,0,0,0,35.88,5l-.09-.11,0,0-.06-.06v.07l.07.13,0,0s.08.07.15.21,0,0,0,0-.07-.1-.08-.09l0,0s-.08,0-.08,0,0,0-.06,0-.06-.05,0,.07a1.33,1.33,0,0,0-.35-.2c-.05,0-.12-.06-.16,0l0,0a1.56,1.56,0,0,1-.32-.25s0,0,0,0-.09,0-.14-.1a.26.26,0,0,0-.1-.07.61.61,0,0,1-.34-.21.26.26,0,0,1,.15,0c.1,0,.07,0,0-.14a1.54,1.54,0,0,1-.27-.07L33.79,4a.25.25,0,0,1-.08-.12.65.65,0,0,1,0-.21,1.83,1.83,0,0,1,.87.2h0c.07-.05.15,0,.23,0s.08,0,.09,0a0,0,0,0,1,0,0c.06.1.09,0,.13.06s.07,0,.1.08l.12.13,0,.06s0,.07,0,0,0,0,.08.09.05,0,.06.06h0l.15.23c0,.1.1.16.15.27Z"/><path class="cls-8" d="M37.3,7.45c.09.12,0,.06,0,.06l.2.25.1.11h0l-.26-.31,0,0-.21-.27L36.94,7l-.15-.19,0-.06a1.93,1.93,0,0,1-.22-.26l.09.09s0,0,0,0l-.07-.1s-.13-.15-.19-.2-.09-.1-.14-.15S36.12,6,36.12,6s0,0-.09-.09a.5.5,0,0,0-.14-.15l-.14-.08a.36.36,0,0,1-.09-.13.15.15,0,0,1,.08,0c.1.08.13.06.15,0s0,0,.06,0a.55.55,0,0,0,.14.14l.09,0h0c.06.09,0,0,0,0l.1.14s0-.09-.06-.12.13.23.07.09.12.21.15.26l0,.06c0,.05,0,.07,0,.05s0,0,0,.06l0,.07c0-.07,0,0,0,0s.06.1,0,.07,0,0,0,0l.09.13h0c-.05-.07-.1-.15-.07-.08s0,0,0,0h0s0,0,0,0v0l0,.06.06.07a.85.85,0,0,0,.09.14l.14.18h0l.11.15,0,0,.1.13,0,0,.15.18.09.11-.06-.07-.06-.07Z"/><path class="cls-8" d="M33.07,9.69l.26.1a.44.44,0,0,1,.18.18.4.4,0,0,0,.23.21.33.33,0,0,1,.16.12c.11.17.28.22.41.34s.16.06.27.09l.13,0-.07.19a.74.74,0,0,1-.1.22.39.39,0,0,1-.17.11,1,1,0,0,1-.25,0H34c-.08,0-.15,0-.24,0s-.07,0-.11,0h-.08q-.21-.15-.3,0c-.15-.07-.28-.1-.38,0l0-.05.28-.27c-.07-.09-.12-.13-.2-.11a.25.25,0,0,1-.15-.1,1.6,1.6,0,0,0,.23,0,.11.11,0,0,0,0-.09s0-.07-.08-.09a.8.8,0,0,1-.13-.16c.11,0,.29.14.39,0s-.12-.2-.19-.32l-.38-.1.08-.17-.18-.11s0,.08,0,.11l0,0-.06-.2-.16-.09.08-.12-.25-.15.09,0,.13.14c-.07-.2.1-.19.06-.32l.44.06c0,.1,0,.08-.07.1s-.08,0,0,.12l.49.08A.53.53,0,0,1,33.07,9.69Z"/><path class="cls-8" d="M37.18,6.83s0,0,0,.07a1.05,1.05,0,0,0,.2.14,2.33,2.33,0,0,1,.28.19.6.6,0,0,0,.18.07H38c0-.06,0-.06.28,0h0v0l.2.11h0l-.27,0a0,0,0,0,0,0,0c.06.12,0,.06-.1.07l.14.11v0l-.11,0,0,0a4.43,4.43,0,0,1-.43-.2.53.53,0,0,1-.19-.09L37.16,7A1.54,1.54,0,0,1,37,6.86l0,0a.61.61,0,0,1-.13-.14v0a.54.54,0,0,0,.06.11c0,.1,0,.1,0,.06l-.13-.19,0,0-.1-.15s0,0,0-.06-.2-.33-.17-.25l0,0,0-.1-.12-.23v0a.54.54,0,0,0,.06.11s0,0,0,0l-.06-.11s-.06-.1-.09-.16,0,0,0-.07h0l.15.28,0,.06v0a4.22,4.22,0,0,0,.27.36.33.33,0,0,1,.09.14l-.06,0v0l.17.19,0,0h-.05v0s0,0,0,0a1.32,1.32,0,0,0,.2.12Z"/><path class="cls-8" d="M28.83,4.13A.89.89,0,0,0,28.88,4l-.25-.13s0-.05.05-.05h.12s.09,0,.08-.08,0,0,.06,0a.06.06,0,0,0,.08,0s.05-.06.08,0,.19-.07.31,0v0l-.11,0,0-.14L29,3.18v0a.33.33,0,0,1,.14,0s0,.09.09.09.08,0,.1,0,0,0,0,0a2,2,0,0,1,.57.09l.19,0,.09,0-.07.06a.42.42,0,0,0,.31.3c0,.08-.06.14-.07.18a1.64,1.64,0,0,0-.63-.15l.08.06-.12.1.08.06L29.7,4V4l.22.09v0l-.24,0-.2-.14a.07.07,0,0,0-.08.05c0,.08-.09,0-.13,0s-.09,0-.15-.08S29,4,29,4.06l.08.12c0,.05,0,.1,0,.15h0l0-.07a.61.61,0,0,1-.14-.07s0,0,0-.07Z"/><path class="cls-8" d="M28.33,6.74h.14a.46.46,0,0,0-.32-.24c.07,0,.16,0,.19-.08-.14-.11-.25,0-.39-.12a.57.57,0,0,1,.16-.11c.05,0,.09-.09.18,0l.21.15.06.14.15,0s0,0,0-.1l.16.11c0-.07.08-.07.16,0a.85.85,0,0,0,.33.07h0c0-.1.1,0,.18,0l.05,0s.09,0,.13.07a.44.44,0,0,0,.18.14.31.31,0,0,1,.1.12c0,.07,0,.07,0,.09l-.1.09-.07,0a.46.46,0,0,0-.26,0,1.4,1.4,0,0,1-.41,0A.77.77,0,0,1,28.84,7a1.07,1.07,0,0,0-.42-.15l-.08,0Z"/><path class="cls-8" d="M9.94,8.34V8.4a.81.81,0,0,1,0-.11v.05L10,8.05s0,0,0,0,0,0,0-.06.05-.14,0-.1l-.14.41a1,1,0,0,0,0,.15l-.07.23c-.05.17-.08.3-.11.39s0,0,0,0a2.23,2.23,0,0,0,.08-.24s0,.13,0,.11a.87.87,0,0,0-.06.15l-.08.17h0a5.4,5.4,0,0,0,.25-.59v0c0-.11,0-.13,0-.11a.1.1,0,0,0,0,0l0-.15V8.34Z"/><path class="cls-8" d="M20.05,11.44c0-.09,0-.17.05-.25h0c-.11.11-.23.21-.34.33a.34.34,0,0,1-.24.11l.24-.25-.35.08-.82.28s-.06,0-.08,0-.06,0-.07,0,0-.05,0-.07a.48.48,0,0,1,.11-.09c0-.05.1-.08.07-.14a.09.09,0,0,1,0-.09,3.1,3.1,0,0,0,.26-.41c.09-.12.18-.25.28-.37a.75.75,0,0,1,.47-.25l-.45.58h0l.17-.13s.15,0,.12.06.2,0,.26,0a.76.76,0,0,1,.43-.1c0,.06,0,.13-.05.22l.2-.09,0,0a1.14,1.14,0,0,0-.15.16c0,.05-.15.13,0,.17l.14-.19h0a1.22,1.22,0,0,0-.05.17l.18-.13c-.05.13-.08.23-.13.35s-.16.08-.19,0S20.1,11.43,20.05,11.44Z"/><path class="cls-8" d="M12.66,20.43a1,1,0,0,1-.56.08,1.31,1.31,0,0,0-.28,0l-.31,0,.2-.14c-.05-.09-.17-.07-.26-.06a.62.62,0,0,1-.41-.12.23.23,0,0,1-.07-.07.5.5,0,0,0-.53-.15l0,.09-.54,0A.26.26,0,0,0,9.58,20c-.05-.09,0-.14.08-.18l.15-.05c.2,0,.4-.05.61-.06a1.32,1.32,0,0,1,.66.1,1.75,1.75,0,0,0,.33.05.48.48,0,0,1,.21.12.79.79,0,0,0,.36.2,1.2,1.2,0,0,1,.33.13A1.8,1.8,0,0,0,12.66,20.43Z"/><path class="cls-8" d="M32.52,10.53l-.44.06H32c-.17,0-.19,0-.36-.14,0-.15.17-.16.17-.3l-.18-.1,0-.23.18,0h.19a.43.43,0,0,1-.06-.09s0-.08.06-.09a.33.33,0,0,1,.17,0,.67.67,0,0,1,.51.32,1,1,0,0,1-.15.1,2.44,2.44,0,0,1,.1.24l.1,0Z"/><path class="cls-8" d="M9.86,8.38c.06-.14.08-.18.08-.17s0,0,.06-.09,0,0,0,0a1.62,1.62,0,0,1,.15-.26l.12-.15c.06-.09.07,0,.11,0l0,.1s0,.12,0,.18l0,.06a.34.34,0,0,1-.12.18.66.66,0,0,0-.15.17c-.05.08-.07.08-.07.06s0-.06-.06,0S9.86,8.37,9.86,8.38Z"/><path class="cls-8" d="M12.05,19.1s.16.06.16.17l-.19,0c-.09.11,0,.15.09.21a.25.25,0,0,0,.29.13s.07.05.1.09c-.26,0-.32.16-.46.26l-.16,0a.29.29,0,0,1-.28-.09l-.07,0c-.26-.08-.35-.2-.32-.41a1.23,1.23,0,0,0,0-.27.1.1,0,0,1,.14-.09.33.33,0,0,0,.31,0l.06.06-.13.05a2.43,2.43,0,0,1,.13.38.21.21,0,0,0,.2.13s.1-.09.08-.12-.08-.06-.14-.09-.06-.14-.09-.22Z"/><path class="cls-8" d="M9.71,9.1h0v0a2.7,2.7,0,0,1-.15.29l0,0-.06.07c0,.06,0,0-.06,0l-.05.05s-.06.07-.07,0l.08-.11a.74.74,0,0,0,.15-.18l.13-.19.12-.22.08-.16,0-.11a.62.62,0,0,1,0,.1l-.06.16s-.06.13-.09.21Z"/><path class="cls-8" d="M13.11,20.63l-.17-.05a.3.3,0,0,1,.27,0,.82.82,0,0,0,.35,0,.77.77,0,0,1,.63.15.83.83,0,0,0,.22.08l.29.1c-.09.06-.1.12-.23.08A.64.64,0,0,0,14,21L14,21c-.19-.1-.27,0-.36.12l0,0c-.15-.25-.46-.11-.69-.16s-.21,0-.32-.06c0,0,.08-.05.11-.05l.33.05.26,0Z"/><path class="cls-8" d="M10.54,6.73l0,.07s-.08.14-.1.13-.05.06-.05.05-.06.13-.09.21,0,.07,0,0a.49.49,0,0,0,0-.11c0-.08,0,0,0,0h0l0-.09a1.55,1.55,0,0,1,.07-.23l0,0,0,0a.08.08,0,0,0,0,0s.05-.06.07-.06,0-.06,0,0S10.53,6.73,10.54,6.73Z"/><path class="cls-8" d="M10.07,8a1.77,1.77,0,0,1,0,.2c0-.12,0-.16.05-.22l0-.12a1.87,1.87,0,0,0,0-.2l0,.17s0,.08,0,.14a1.16,1.16,0,0,1,0-.18v0a.86.86,0,0,0,0,.13V8h0l0,.06a1.88,1.88,0,0,0-.07.33V8.4c0,.06,0,.09,0,0a.36.36,0,0,0,0-.11s.06-.22.07-.26A.09.09,0,0,0,10.07,8Z"/><path class="cls-8" d="M11,6.31l-.07.18a1.75,1.75,0,0,1,.24-.11.21.21,0,0,1-.11.14,1.6,1.6,0,0,1-.25.11c-.07,0-.14,0-.17,0a.54.54,0,0,0,0-.08C10.72,6.34,10.81,6.38,11,6.31Z"/><path class="cls-8" d="M39,6.81l-.36,0v0l.38,0Z"/><path class="cls-8" d="M38.61,15.41s-.07,0-.09,0a2.2,2.2,0,0,0-.49-.28L38,15S38,15,38,15s.1,0,.18,0a.36.36,0,0,0,.2,0l.16,0c0,.11,0,.19.05.31S38.61,15.37,38.61,15.41Z"/><path class="cls-8" d="M37.15,14.57l-.15.07c-.08,0-.15,0-.17-.11a.67.67,0,0,0-.16-.38l.27-.13a.32.32,0,0,1,.15.28A1.31,1.31,0,0,0,37.15,14.57Z"/><path class="cls-8" d="M37.33,6.67s.1,0,.12,0,.06,0,.09,0,.08.09.09,0,0,0,0,0a.78.78,0,0,1,.37.15,1.41,1.41,0,0,0-.39,0C37.55,6.83,37.43,6.73,37.33,6.67Z"/><path class="cls-8" d="M12,18.86l-.14.13-.08-.06c0-.08-.13-.12-.28-.07s-.12,0-.16-.15.09-.05.13,0A.86.86,0,0,1,12,18.86Z"/><path class="cls-8" d="M39.88,9.25c0,.06-.1.06-.23,0l-.09,0s-.08-.07-.07-.08,0,0,0,0A1.56,1.56,0,0,1,39.88,9.25Z"/><path class="cls-8" d="M37.08,10a1.37,1.37,0,0,1,0,.29c0,.07-.1,0-.25,0H37c-.06-.1-.2-.06-.22-.21A.7.7,0,0,1,37,10s.08,0,.12,0Z"/><path class="cls-8" d="M12.31,9.84a1.21,1.21,0,0,1-.44.22c-.11,0-.15,0-.19-.05A.8.8,0,0,1,12.31,9.84Z"/><path class="cls-8" d="M5.11,14.28c-.14-.07-.19-.19-.27-.32h.37C5.05,14.08,5.18,14.16,5.11,14.28Z"/><path class="cls-8" d="M12.67,11.34l-.26.2h-.12c-.06,0-.1,0-.1,0s.05-.08.11-.11l.09-.05-.1-.06,0,0Z"/><path class="cls-8" d="M16.78,11.73a1.27,1.27,0,0,1,.83-.11C17.37,11.75,17.37,11.75,16.78,11.73Z"/><path class="cls-8" d="M41.35,16.55l.19,0a1,1,0,0,0,0,.12C41.47,16.73,41.46,16.72,41.35,16.55Z"/><path class="cls-8" d="M11.91,21c-.22,0-.46.1-.61-.11A.79.79,0,0,1,11.91,21Z"/><path class="cls-8" d="M10.17,7.53l0-.09C10.15,7.6,10.15,7.62,10.17,7.53Z"/><path class="cls-8" d="M11.41,6.45a.46.46,0,0,0,0-.1.24.24,0,0,1,.31,0C11.61,6.42,11.52,6.4,11.41,6.45Z"/><path class="cls-8" d="M9.72,9.1a1,1,0,0,1-.16.29,2.79,2.79,0,0,0,.15-.29Z"/><path class="cls-8" d="M36.86,13.6a.3.3,0,0,1,0,.3s-.06,0-.11,0S36.67,13.61,36.86,13.6Z"/><path class="cls-8" d="M40.17,16.09c0-.09.14,0,.2.05a.64.64,0,0,1,.19.13c-.07,0-.13,0-.24-.09A1,1,0,0,0,40.17,16.09Z"/><path class="cls-8" d="M17.44,12.43c-.07.11-.11.17-.26.17s-.28,0-.4,0l.06-.08C17,12.6,17.22,12.5,17.44,12.43Z"/><path class="cls-8" d="M12.74,10.1,12.63,10a.94.94,0,0,1,.1-.1c.1-.07.2-.09.22,0s-.06.11-.12.16Z"/><path class="cls-8" d="M15.63,21c-.16.21-.36.06-.54.14,0-.08,0-.12,0-.15Z"/><path class="cls-8" d="M28.49,4.1c.09,0,.16,0,.24.11a.31.31,0,0,1-.21,0Z"/><path class="cls-8" d="M37.39,6.6a.35.35,0,0,1-.31-.13l.29.1Z"/><path class="cls-8" d="M34.74,10.56h.32v0a1,1,0,0,1-.17.12C34.79,10.74,34.77,10.72,34.74,10.56Z"/><path class="cls-8" d="M37,6.56s-.12-.09-.16-.1l0,0s0,0,0,0A.76.76,0,0,1,37,6.56Z"/><path class="cls-8" d="M10.06,7.88C10,8,10,8,10,8S10.07,7.84,10.06,7.88Z"/><path class="cls-8" d="M13.32,20.06a.26.26,0,0,1,.34,0,1.18,1.18,0,0,0-.11.15Z"/><path class="cls-8" d="M10.55,6.36c0-.06.07-.12.11-.13S10.6,6.36,10.55,6.36Z"/><path class="cls-8" d="M38.08,9.73c0,.07.05.19,0,.18C38,9.74,38,9.72,38.08,9.73Z"/><path class="cls-8" d="M43.89,22.12a.29.29,0,0,1,0-.22,1.26,1.26,0,0,1,.11.17l-.1.05Z"/><path class="cls-8" d="M36.18,5.58l0,0s0-.07,0-.12l0-.06v0h0A2.45,2.45,0,0,1,36.18,5.58Z"/><path class="cls-8" d="M36.17,5.46a1,1,0,0,1-.11-.23S36.09,5.26,36.17,5.46Z"/><path class="cls-8" d="M10.31,7.13A1.19,1.19,0,0,1,10.39,7C10.34,7.1,10.32,7.14,10.31,7.13Z"/><path class="cls-8" d="M38,6.93a1.63,1.63,0,0,0,.28.07C38.17,7.09,38.06,7,38,6.93Z"/><path class="cls-8" d="M17.08,8.88h-.17c.05-.09.11-.14.18-.14S17.19,8.77,17.08,8.88Z"/><path class="cls-8" d="M13.3,9.54a.41.41,0,0,1,.28,0C13.42,9.63,13.41,9.63,13.3,9.54Z"/><path class="cls-8" d="M46.38,23.05l.28,0C46.49,23.18,46.47,23.18,46.38,23.05Z"/><path class="cls-8" d="M32,9.07,32,9l.16-.05C32.16,9.06,32.08,9.06,32,9.07Z"/><path class="cls-8" d="M35.26,14.4c.05-.09.11-.1.2,0S35.42,14.51,35.26,14.4Z"/><path class="cls-8" d="M9.92,8.56l0,.14A.55.55,0,0,0,9.92,8.56Z"/><path class="cls-8" d="M17.12,23.16c.08,0,.14,0,.16.07s-.07.13-.19.11Z"/><path class="cls-8" d="M44.06,21.79l0-.07.06.12,0,0S44.08,21.89,44.06,21.79Z"/><path class="cls-8" d="M36,5.48s0,0-.1-.12Z"/><path class="cls-8" d="M38.33,7c0-.06.11,0,.2,0S38.4,7,38.33,7Z"/><path class="cls-8" d="M28,2.25l.14.11v0L28,2.3Z"/><path class="cls-8" d="M28.47,3.26c0-.08,0-.16.1-.1a.12.12,0,0,0-.05,0Z"/><path class="cls-8" d="M16.13,9.42l-.21.12C16,9.41,16.05,9.36,16.13,9.42Z"/><path class="cls-8" d="M13.65,9.4h.2c-.11.08-.11.08-.21,0Z"/><path class="cls-8" d="M32.9,9l-.16,0C32.78,8.85,32.78,8.85,32.9,9Z"/><path class="cls-8" d="M37.81,6.85c0,.1,0,.11,0,.08a.08.08,0,0,1,0,0S37.79,6.86,37.81,6.85Z"/><path class="cls-8" d="M12.75,19.94c0-.07,0-.1,0-.16l.18,0Z"/><path class="cls-8" d="M38.45,7.13,38.4,7l.22,0Z"/><path class="cls-8" d="M28.83,4.13c-.06,0-.12,0-.19-.11l.19.11Z"/><path class="cls-8" d="M9.74,8.68c.07-.11,0,0,0,0S9.74,8.69,9.74,8.68Z"/><path class="cls-8" d="M11,19.57l0,0s-.12,0-.13-.05l0,0C10.92,19.5,11,19.51,11,19.57Z"/><path class="cls-8" d="M42.41,27.89c-.07,0,0-.05,0-.16Z"/><path class="cls-8" d="M29.05,4.34c0,.08,0,.09,0,.14,0-.12,0-.12,0-.14Z"/><path class="cls-8" d="M20.63,5.33l.09,0c-.06.06-.1.06-.14,0l.05-.08Z"/><path class="cls-8" d="M38,25.4l.12-.15s0,0,0,0l-.11.16Z"/><path class="cls-8" d="M12.55,10.53l-.16.08v0l.15-.08Z"/><path class="cls-8" d="M17,4.71l.17-.07v0L17,4.73Z"/><path class="cls-8" d="M28.59,3.53h-.07v0h.07Z"/><path class="cls-8" d="M37.78,9.93l0,0,0,0V10h0a.3.3,0,0,1,0-.08Z"/><path class="cls-8" d="M38.7,7l-.11-.07v0l.11.06Z"/><path class="cls-8" d="M8.46,10.54l0,0-.06,0v0Z"/><path class="cls-8" d="M32,9.07a.45.45,0,0,0,0,.13h0C32,9.16,31.91,9.1,32,9.07Z"/><path class="cls-8" d="M35.9,5.11l0-.06V5l0,.07Z"/><path class="cls-8" d="M42.51,27.64a.89.89,0,0,1,.05-.13S42.56,27.58,42.51,27.64Z"/><path class="cls-8" d="M10.37,7.5l0-.06v0a.1.1,0,0,1,0,0Z"/><path class="cls-8" d="M28.67,3.68l0,0v0l0,0Z"/><path class="cls-8" d="M13,20.25h-.17L13,20.2l.07,0Z"/><path class="cls-8" d="M37.61,7.83l0,0,0,0,0,0Z"/><path class="cls-8" d="M21.87,2.15l.13,0h0l-.13,0Z"/><path class="cls-8" d="M40.68,16.07s0-.06,0-.08l0,0v.09Z"/><path class="cls-8" d="M32.31,9.6h.08l0,0h-.08Z"/><path class="cls-8" d="M40.16,15.12s0-.08.09.05Z"/><path class="cls-8" d="M16.14,23h.1v0h-.12Z"/><path class="cls-8" d="M26.23,2l.44.05v0l-.21,0h-.22S26.23,2.05,26.23,2Z"/><path class="cls-8" d="M25.91,2.06h.21v0l-.21,0Z"/><path class="cls-8" d="M28.41,2.75l.13,0h0l-.13,0Z"/><path class="cls-8" d="M22.48,2.07l-.18,0C22.39,2,22.39,2,22.48,2.07Z"/><path class="cls-8" d="M27.23,2.27h-.09l.09,0Z"/><path class="cls-8" d="M27.72,4.36l.07,0h-.07Z"/><path class="cls-8" d="M25.7,2.08h.1v0H25.7Z"/><path class="cls-8" d="M17.84,4l-.23.09v0L17.84,4Z"/><path class="cls-8" d="M14.32,5.23l.17-.08s0,0,0,.08Z"/></g></g></g></g></svg>